<svg xmlns="http://www.w3.org/2000/svg"><style>:root svg:not(:target){display:none}</style><svg fill="none" id="checkbox-tick" viewBox="0 0 26 26"><path d="M11 17.718 5.3 11.27l-1.05 1.187L11 20.094 22.25 7.366 21.2 6.094 11 17.718Z" fill="#68B738"></path></svg><svg fill="none" id="details-cook" viewBox="0 0 27 29"><path d="M11.375 0c-1.631 0-2.9 1.36-2.9 3.081 0 1.722 1.269 3.081 2.9 3.081s2.9-1.359 2.9-3.08c0-1.723-1.269-3.082-2.9-3.082Zm0 1.178c.997 0 1.722.843 1.722 1.903 0 .997-.789 1.903-1.722 1.903-.997 0-1.722-.842-1.722-1.903 0-.997.78-1.903 1.722-1.903ZM.5 24.741c0 1.178.408 2.175 1.36 2.99.996.852 2.174.78 2.174.78h19.032c.779 0 1.812-.381 2.628-1.45.843-.997.788-2.357.788-2.357V7.486c0-.435-.109-.598-.743-.598s-.689.271-.689.589v17.218c-.018.3-.072 1.088-.743 1.722-.734.625-1.45.544-1.45.544s-18.125 0-19.031-.027c-.344-.064-.906-.19-1.45-.907-.508-.725-.408-1.63-.408-1.63V7.176c0-.462-.236-.634-.725-.634-.49 0-.743.172-.743.58v17.618ZM16.813 8.428c-1.088.236-2.175.38-4.26 2.356-2.084 1.994-3.625 1.903-5.166 1.813-1.54-.09-3.171-1.54-3.443-1.903-.336-.354-.906-.118-1.088.118-.154.235-.154.643.109.996 1.269 1.179 2.447 2.085 4.713 2.266 2.265.218 4.44-.806 5.89-2.266 1.45-1.45 2.175-1.721 3.263-1.903 2.628-.417 4.168.617 5.075 1.27.997 1.087 1.268.778 1.54.47.544-.716-.226-1.268-1.087-1.903-1.813-1.178-3.535-1.631-5.528-1.269l-.018-.045Zm-9.063 7.16c-1.178 0-2.084.996-2.084 2.265 0 1.269.906 2.266 2.084 2.266s2.084-.997 2.084-2.266c0-1.269-.906-2.266-2.084-2.266Zm11.781.779c-1.54 0-2.81 1.36-2.81 2.99 0 1.632 1.27 2.991 2.81 2.991s2.81-1.36 2.81-2.99c0-1.632-1.27-2.991-2.81-2.991Zm0 1.45c.798 0 1.45.698 1.45 1.54 0 .861-.652 1.541-1.45 1.541-.797 0-1.45-.698-1.45-1.54 0-.861.653-1.541 1.45-1.541Z" fill="#fff"></path></svg><svg fill="none" id="details-leaf" viewBox="0 0 30 32"><path d="M27.844 2.767c-.1-.45-.48-.767-.912-.767h-.005c-4.938.033-16.945.916-21.793 8.38-2.518 3.878-2.735 8.913-.644 14.965.016.047.048.079.07.122-.747 1.973-1.037 3.286-1.044 3.323-.11.54.214 1.072.72 1.188a.88.88 0 0 0 .197.022c.433 0 .822-.321.916-.79.02-.102 2.409-10.373 10.854-16.378.431-.306.547-.927.26-1.387-.288-.46-.87-.585-1.3-.277-4.79 3.405-7.739 8.008-9.473 11.656-1.242-4.578-.916-8.377.986-11.305 3.743-5.764 12.622-7.154 17.982-7.448C23.505 5.872 22.245 9.174 22.245 15c0 3.12-.83 5.522-2.465 7.14-2.62 2.591-6.88 2.834-9.993 2.584-.518-.045-.967.371-1.006.922-.04.55.347 1.03.863 1.072.623.051 1.29.082 1.981.082 3.17 0 6.87-.663 9.43-3.194 2.034-2.011 3.065-4.906 3.065-8.605 0-9.099 3.216-11.096 3.232-11.105.39-.209.594-.677.492-1.129Z" fill="#fff"></path></svg><svg fill="none" id="details-meal" viewBox="0 0 26 30"><path fill-rule="evenodd" clip-rule="evenodd" d="M19.117.076a1 1 0 0 1 1.09.217c.909.908 2.097 2.878 3.059 5.918C24.237 9.28 25 13.508 25 19a1 1 0 0 1-1 1h-3.5v9a1 1 0 1 1-2 0V1a1 1 0 0 1 .617-.924ZM20.5 18h2.491c-.086-4.816-.786-8.512-1.632-11.186-.278-.88-.57-1.643-.859-2.295V18ZM6.5 0a1 1 0 0 1 1 1v28a1 1 0 1 1-2 0V1a1 1 0 0 1 1-1Z" fill="#fff"></path><path fill-rule="evenodd" clip-rule="evenodd" d="M2 0a1 1 0 0 1 1 1v5.5c0 .557.192 1.315.7 1.917.48.566 1.314 1.083 2.8 1.083a1 1 0 1 1 0 2c-2.015 0-3.43-.733-4.326-1.792A5.068 5.068 0 0 1 1 6.5V1a1 1 0 0 1 1-1Z" fill="#fff"></path><path fill-rule="evenodd" clip-rule="evenodd" d="M11 0a1 1 0 0 0-1 1v5.5a3.07 3.07 0 0 1-.7 1.917C8.82 8.983 7.984 9.5 6.5 9.5a1 1 0 0 0 0 2c2.014 0 3.43-.733 4.326-1.792A5.068 5.068 0 0 0 12 6.5V1a1 1 0 0 0-1-1Z" fill="#fff"></path></svg><svg fill="none" id="details-time" viewBox="0 0 27 31"><path d="M6.12 0c-1.066 0-1.066 1.583 0 1.583h6.668v1.604C5.96 3.62.563 9.414.563 16.485c0 4.01 1.75 7.63 4.512 10.069.48.422.544 1.171.107 1.636L3.646 29.74c-.747.686.362 1.752 1.034 1.003l2.006-2.037a1.164 1.164 0 0 1 1.312-.211 12.785 12.785 0 0 0 11.105.063c.427-.211.96-.127 1.301.211l1.942 1.974c.683.633 1.664-.317 1.046-1.003l-1.451-1.477c-.448-.454-.384-1.203.106-1.636a13.467 13.467 0 0 0 3.415-4.583 13.335 13.335 0 0 0 1.194-5.57c0-7.071-5.43-12.876-12.268-13.288V1.583h6.667c1.067 0 1.067-1.583 0-1.583H6.121ZM2.004 16.475c0-6.533 5.195-11.82 11.606-11.82 6.4 0 11.596 5.287 11.596 11.82 0 6.543-5.195 11.841-11.596 11.841-6.4 0-11.606-5.298-11.606-11.841ZM12.799 8.38c0-1.098 1.664-1.098 1.664 0v8.633a.84.84 0 0 1-.25.597.858.858 0 0 1-.604.247.816.816 0 0 1-.57-.23.798.798 0 0 1-.24-.561V8.38Zm-4.993 2.617c.308 0 .604-.12.822-.337a1.144 1.144 0 0 0 0-1.627 1.17 1.17 0 0 0-.822-.336c-.288.027-.555.16-.75.371a1.144 1.144 0 0 0 0 1.547c.195.212.462.344.75.372v.01Zm11.596 0c.308 0 .604-.12.822-.337a1.144 1.144 0 0 0 0-1.627 1.17 1.17 0 0 0-.822-.336c-.288.027-.555.16-.75.371a1.144 1.144 0 0 0 0 1.547c.195.212.462.344.75.372v.01ZM8.969 23.588c0 1.53-2.326 1.53-2.326 0s2.326-1.53 2.326 0Zm4.64 3.44a1.176 1.176 0 0 0 .893-.293 1.153 1.153 0 0 0 .381-.851 1.14 1.14 0 0 0-.38-.852 1.167 1.167 0 0 0-.894-.293c-.287.027-.555.16-.75.371a1.143 1.143 0 0 0 0 1.547c.195.212.463.344.75.372ZM5.491 16.645a1.139 1.139 0 0 1-.297.883 1.162 1.162 0 0 1-.86.377 1.173 1.173 0 0 1-.86-.377 1.148 1.148 0 0 1-.298-.883c.028-.285.162-.55.376-.742a1.17 1.17 0 0 1 1.564 0c.214.193.348.457.375.742Zm17.388 1.15a1.173 1.173 0 0 0 .894-.294 1.152 1.152 0 0 0 .38-.851 1.14 1.14 0 0 0-.38-.852 1.164 1.164 0 0 0-.894-.293c-.287.027-.555.16-.749.371a1.144 1.144 0 0 0 0 1.547c.195.212.462.345.75.372Zm-2.314 5.805c0 1.52-2.326 1.52-2.326-.01 0-1.531 2.326-1.531 2.326 0v.01Z" fill="#fff"></path></svg><svg fill="none" id="product-series-arrow-long" viewBox="0 0 32 12"><path stroke="#000" stroke-width="2" d="M0 6h26"></path><path d="m32 6-6.75 5.196V.804L32 6Z" fill="#000"></path></svg><svg fill="none" id="product-series-arrow" viewBox="0 0 32 12"><path stroke="#000" stroke-width="2" d="M0 6h18"></path><path d="m24 6-6.75 5.196V.804L24 6Z" fill="#000"></path></svg><svg fill="none" id="product-series-pro" viewBox="0 0 134 56"><path d="M123.118 5.757a15.207 15.207 0 0 1 4.5-4.6c1-.7 1.6-.7 2.2.6.8 1.9 1.5 3.9.9 6a2.288 2.288 0 0 0 .4 2.1c.6.8 1.1 1.6 1.6 2.3a6.266 6.266 0 0 1 .9 6.2 5.437 5.437 0 0 0-.2 3.1c.2.99.2 2.01 0 3a3.752 3.752 0 0 1-2.7 3.2 5.212 5.212 0 0 0-3.2 2 1.05 1.05 0 0 1-.9.5c-1.2.2-4.2-2.5-4.2-3.7v-.6c.1-3.6-.1-3.9-3.4-5.4a4.399 4.399 0 0 1-1.8-1.2c-.6-.8-1.4-.7-2.3-.4-.9.3-1.4.9-1.3 1.9.302 2.42.402 4.862.3 7.3.007.278.075.551.2.8 3.1 4.5 4.3 9.8 5.8 14.9 1.2 3.9 3.4 6 7.4 6.3.64.05 1.276.151 1.9.3a4.164 4.164 0 0 1 3.4 3.2c.7 2.1.3 2.6-1.8 2.6h-6.5a3.242 3.242 0 0 1-2.3-.8 11.71 11.71 0 0 0-3.4-2 7.263 7.263 0 0 1-3.4-2.6 28.581 28.581 0 0 0-4-4.5c-2.8-2.9-5.8-5.7-8.4-8.7a11.382 11.382 0 0 1-3.2-7.6c0-.9-.2-1.3-1.2-.9-.3.19-.645.294-1 .3-2.8 0-4.2 1.7-5.2 4.2-.9 2.1-2.1 4.1-3.2 6.2a10.39 10.39 0 0 0-1 4.2c0 2.4.6 3.2 2.8 4 1.4.5 2.7 1 3.4 2.4.8 1.6.6 2-1.1 2.1h-6.8a1.88 1.88 0 0 1-1.9-1.1l-1.8-3a6.049 6.049 0 0 1-.7-5.4 11.86 11.86 0 0 0 .1-5.3 8.42 8.42 0 0 1 1.7-7c.6-.7.6-1-.4-1.2a50.068 50.068 0 0 1-11.8-4.1.1.1 0 0 1-.1-.1c-3.2-1.2-3.8-1-4.7 2.3-.8 2.8-1.6 5.6-2.2 8.5-.7 3.2.1 6.2 1.1 9.2.4 1.2 1.6 1.1 2.5 1.4 2 .6 3.7 1.4 4.5 3.5.7 1.6.6 1.8-1.1 1.8-1.7 0-3.4-.1-5.2 0a6.641 6.641 0 0 1-4.2-1.4c-4.8-3.2-6.2-8.1-6.6-13.4-.2-3.3-2-5.9-4.1-8.4-.4-.5-.8-.7-1.4-.3a44.322 44.322 0 0 1-6.7 3 26.71 26.71 0 0 0-12.2 8.8 10.63 10.63 0 0 0-2.2 5.1c-.3 1.8.2 2.6 2 3.1s2.7 1.5 2.9 3.4c.1.8-.2 1.2-1 1.2h-8.1a1.65 1.65 0 0 1-1.3-.8 8.56 8.56 0 0 1-1.9-5.5c-.052-3.455.25-6.907.9-10.3a6.3 6.3 0 0 1 3.4-4.8c5.9-2.8 9-8.1 11.8-13.6.6-1.1.1-1.3-.9-1.2a16.47 16.47 0 0 0-7.7 3.2 70.622 70.622 0 0 0-8.3 7.1 16.67 16.67 0 0 1-10.3 4.9c-7.3.4-10.7-3.7-10.4-10.3a9.69 9.69 0 0 1 2.4-6.1 4.25 4.25 0 0 1 4.5-1.5c1.5.4 1.9 1.2 1.3 2.7-.3.6-.7 1.1-1 1.7a7.499 7.499 0 0 0-1 2c-1.1 3 .4 5.1 3.5 5.4 3.3.3 6-1.1 8.5-3.1a44.94 44.94 0 0 0 8-8.3 20.79 20.79 0 0 1 14.4-8.1c2.3-.3 4.3-1.3 6.5-1.9a41.51 41.51 0 0 1 12.7-1.8 13 13 0 0 0 5.8-1.1c4.9-2 10-2 15.1-1 4 .8 8 1.8 11.9 2.8a16.58 16.58 0 0 0 7-.2 67.793 67.793 0 0 1 13.4-2 18.16 18.16 0 0 1 8.6 1.7c2 .9 2 .9 1.5 2.8Z" fill="#000"></path></svg><svg fill="none" id="product-series-slim" viewBox="0 0 70 97"><path d="M54.84 0h-.38A3.5 3.5 0 0 0 53 1.59 15.54 15.54 0 0 0 51.71 5a1.63 1.63 0 0 1-1.48 1.34A7.34 7.34 0 0 0 45 10.12a27.31 27.31 0 0 0-1.85 4c-1.42 3.68-2.51 7.48-3.85 11.19C38.67 27 38.64 27 36.74 27c-2.27 0-2.11-.35-2.14 2.15 0 .79.24 1.19 1.08 1.15.26 0 .65-.13.75.21.1.34-.24.49-.44.69a9 9 0 0 1-4.33 2.44c-1.9.51-3.84.91-5.69 1.53-4.75 1.59-9.14 3.81-12.56 7.57a28.002 28.002 0 0 0-4.74 7.84C5 59.22 3.22 68.32 1.84 77.51c-.65 4.31-1.11 8.64-1.46 13C.2 92.65 0 94.82 0 97h33.33a2.18 2.18 0 0 0-.23-1.28 5 5 0 0 0-3.83-3.07c-.7-.16-.78-.37-.35-.92a10.348 10.348 0 0 0 1.59-3.1c1.63-4.81 2.26-9.83 3.05-14.8A30.001 30.001 0 0 1 37 63a21.6 21.6 0 0 1 5.59-6.37c.83-.63.86-.63 1 .44.1.71.12 1.44.17 2.16.3 4.724.24 9.465-.18 14.18a61.669 61.669 0 0 0-.15 11A75.16 75.16 0 0 0 45.7 97H59a5.41 5.41 0 0 0-4.24-4.44 9 9 0 0 0-3.76.2c-.6.14-.85 0-.9-.65a56.351 56.351 0 0 1 1-15.82 177.734 177.734 0 0 0 3.06-18.18 17.75 17.75 0 0 1 2.28-7c1.19-2.12 2.23-4.32 3.4-6.45a5.871 5.871 0 0 0 .42-5.19c-.27-.71-.53-1.43-.86-2.11-1-1.95-2-3.88-2.92-5.85-.49-1-.38-1.12.71-1.15 1.63 0 1.63 0 1.66-1.64v-.66c0-.69-.26-1.07-1-1h-1.52c-.69 0-.89-.29-.72-1a6.24 6.24 0 0 1 5.13-4.43 22 22 0 0 1 6.62.43 1 1 0 0 0 1.25-.64c.4-1 .84-2 1.29-3a1 1 0 0 0-.1-1.14C66.6 13.22 63.13 9.43 58.4 7a1.49 1.49 0 0 1-.88-1.12 19.599 19.599 0 0 0-1.27-4.16A3.5 3.5 0 0 0 54.84 0Z" fill="#000"></path></svg><svg fill="none" id="products-extra-gift" viewBox="0 0 78 81"><path d="M64.016 35.633H14.03c-1.754 0-3.182-1.419-3.182-3.162v-9.472c0-1.744 1.428-3.162 3.182-3.162h49.984c1.754 0 3.18 1.418 3.18 3.162v9.473c0 1.742-1.426 3.16-3.18 3.16ZM14.03 22.26a.752.752 0 0 0-.744.739v9.473c0 .407.334.738.744.738h49.984c.41 0 .743-.331.743-.739V23c0-.401-.34-.74-.743-.74H14.03Z" fill="#fff"></path><path d="M57.045 68.082H20.999c-3.377 0-6.125-2.73-6.125-6.089V34.421c0-.669.546-1.212 1.219-1.212s1.219.543 1.219 1.212v27.572c0 2.022 1.654 3.666 3.687 3.666h36.046c2.032 0 3.686-1.644 3.686-3.666V34.421c0-.669.546-1.212 1.219-1.212.672 0 1.218.543 1.218 1.212v27.572c0 3.358-2.747 6.09-6.123 6.09Z" fill="#fff"></path><path d="M39.023 68.082a1.215 1.215 0 0 1-1.22-1.211V34.42c0-.669.547-1.212 1.22-1.212.672 0 1.218.543 1.218 1.212V66.87c0 .67-.545 1.212-1.218 1.212ZM23.811 22.256c-3.814-2.055-5.238-6.812-3.173-10.605 2.064-3.79 6.848-5.206 10.665-3.155 5.814 3.13 8.954 11.865 9.084 12.235l-2.3.804c-.029-.083-2.961-8.225-7.944-10.908-2.635-1.416-5.937-.439-7.36 2.178-1.426 2.619-.444 5.902 2.19 7.32l-1.162 2.13Z" fill="#fff"></path><path d="m54.231 22.256-1.16-2.132a5.377 5.377 0 0 0 2.622-3.208 5.332 5.332 0 0 0-.431-4.11 5.382 5.382 0 0 0-3.226-2.605 5.423 5.423 0 0 0-4.134.426c-4.982 2.682-7.915 10.825-7.944 10.907l-2.3-.804c.131-.37 3.27-9.104 9.084-12.234a7.856 7.856 0 0 1 5.99-.618 7.8 7.8 0 0 1 4.674 3.773 7.726 7.726 0 0 1 .623 5.955 7.79 7.79 0 0 1-3.798 4.65ZM61.95 51.857H16.093a1.215 1.215 0 0 1-1.219-1.211c0-.669.546-1.211 1.219-1.211H61.95c.672 0 1.218.542 1.218 1.21 0 .67-.545 1.212-1.218 1.212Z" fill="#fff"></path></svg></svg>